<?xml version="1.0" encoding="UTF-8"?>
<svg id="Layer_2" data-name="Layer 2" xmlns="http://www.w3.org/2000/svg" viewBox="0 0 321.35 232.6">
  <defs>
    <style>
      .cls-1 {
        fill: #231f20;
      }
    </style>
  </defs>
  <g id="Layer_1-2" data-name="Layer 1">
    <path class="cls-1" d="m4.67,178.3c5.81.31,14.12.42,24-.67,15.71-1.72,49.9-5.47,71.33-28.67,9.45-10.22,4.61-11.45,26.33-50,8.35-14.82,12.53-22.24,18-29.67,19.41-26.38,44.59-39.1,60.67-47C250.88-.25,297.81-2.03,298.67,1.3c.27,1.05-5.71,3.92-17.67,9.67-9.04,4.34-13.3,5.81-21.33,10.33-.78.44-13.24,7.48-12.67,8.67.4.83,6.92-1.58,10-2.67,25.23-8.9,56.21-12.98,57-10.33.2.68-3.31,2.58-10.33,6.33-11.67,6.24-16.32,7.91-25,13-2.55,1.5-12.6,7.4-12,8.67.4.85,5.35-.73,7.33-1.33,18.9-5.77,46.51-8.42,47.33-5.67.54,1.82-10.62,6.04-26.33,13.33-32.85,15.24-49.27,22.86-62.33,35.33-12.1,11.55-19.51,25.37-34.33,53-9.19,17.13-8.72,19.07-13.33,27-21.25,36.51-63.28,50.45-80,56-51.37,17.04-100.58,7.56-100.67,5.33-.02-.46,2.03-.72,8.67-2,22.56-4.37,57.09-12.69,56.67-16-.17-1.35-6.15-1.58-17.33-2-16.88-.64-22.44.82-35.33-.67C9.77,206.46-.07,204.67,0,203.3c.07-1.25,8.38-1.68,13-2,30.51-2.14,61.27-11.1,61-13.33-.12-.95-8.25.45-26.33-.33-15.06-.65-21.91-2.15-25.33-3-7.64-1.9-13.67-4.43-17.67-6.33Z"/>
  </g>
</svg>